<?xml version="1.0" encoding="UTF-8"?>
<svg xmlns="http://www.w3.org/2000/svg" version="1.1" viewBox="0 0 244 327" height="327" width="244">
  <defs>
    <filter id="drop-shadow" style="color-interpolation-filters:sRGB;">
      <feFlood
        result="flood"
        flood-color="rgb(0,0,0)"
        flood-opacity="0.60" />
      <feComposite
        result="composite1"
        operator="in"
        in2="SourceGraphic"
        in="flood" />
      <feGaussianBlur
        result="blur"
        stdDeviation="8"
        in="composite1" />
      <feOffset
        result="offset"
        dy="6"
        dx="6" />
      <feComposite
        result="composite2"
        operator="over"
        in2="offset"
        in="SourceGraphic" />
    </filter>
  </defs>
  <style>
    .bark {
      fill: #784421;
    }

    .wood {
      fill:#dbbba5;
    }

    .metal {
      fill:#5b5b5b;
    }

    .metal-highlight {
      fill:#999999;
    }

    .orange {
      fill:#d6a815;
    }

    .paddle {
      filter: url('#drop-shadow');
    }

    .flame {
      fill:#d64215;
    }
  </style>
  <path
     id="Log"
     class="bark"
     d="m 179.404,274.432 c -0.210,0.005 -0.412,0.039 -0.560,0.071 -1.337,0.291 -4.484,1.107 -7.075,2.626 -4.715,2.764 -5.641,4.947 -12.694,8.963 -5.248,0.296 -10.243,0.507 -14.260,0.542 -12.815,0.110 -25.621,-0.878 -38.401,-2.017 -7.454,-0.664 -9.703,-0.734 -16.518,-1.021 -4.110,-0.173 -8.223,-0.246 -12.338,-0.189 -9.484,0.131 -28.373,2.152 -28.373,2.152 -0.145,0.010 -0.289,0.011 -0.430,0.028 -0.057,-0.012 -0.115,-0.021 -0.173,-0.028 -3.372,0 -6.105,9.033 -6.105,20.177 0,11.143 2.733,20.177 6.105,20.177 0.068,-0.006 0.137,-0.012 0.205,-0.024 0.130,0.014 0.263,0.034 0.398,0.024 0,0 18.500,-2.012 27.791,-2.152 22.765,-0.341 45.460,3.439 68.228,3.228 16.367,-0.151 48.997,-3.228 48.997,-3.228 0.254,-0.017 0.502,-0.028 0.742,-0.079 0.160,0.047 0.320,0.074 0.481,0.079 3.372,0 6.105,-9.033 6.105,-20.177 0,-11.143 -2.733,-20.177 -6.105,-20.177 -0.165,0.003 -0.330,0.028 -0.495,0.075 -0.234,-0.049 -0.478,-0.075 -0.728,-0.075 0,0 -8.410,0.787 -18.847,1.585 0.323,-0.318 0.650,-0.619 0.986,-0.862 1.421,-1.029 3.516,-1.592 4.889,-1.913 0.766,-0.179 1.555,-0.637 1.677,-1.402 0.434,-2.718 -0.347,-5.204 -2.885,-6.285 -0.184,-0.078 -0.404,-0.101 -0.615,-0.095 z" />
  <ellipse
     id="Log_End"
     class="wood"
     cx="194.724"
     cy="303.085"
     rx="4.060"
     ry="17.103" />
  <ellipse
     id="Log_Branch_End"
     class="wood"
     transform="matrix(0.949,-0.314,0.319,0.947,0,0)"
     ry="2.421"
     rx="1.308"
     cy="321.004"
     cx="82.000" />
  <path
     id="Flame_Outline"
     class="orange"
     d="m 115.818,201.611 c 5.334,14.173 2.561,21.895 -3.413,28.030 -6.507,6.769 -16.643,11.847 -23.791,21.789 -4.954,6.898 -7.755,18.115 -4.441,28.348 1.961,0.034 3.921,0.085 5.877,0.168 4.011,0.169 6.548,0.276 9.441,0.464 -0.072,-7.594 3.129,-15.672 10.353,-22.000 -4.054,13.221 3.413,21.683 12.695,18.616 9.068,-3.067 15.042,3.384 14.829,10.788 -0.106,5.077 -2.132,9.414 -7.360,11.847 22.297,-3.913 31.259,-22.212 31.259,-36.174 0,-18.404 -16.536,-20.943 -8.215,-36.386 -9.922,0.846 -13.335,7.297 -12.375,17.875 0.640,6.981 -6.721,11.741 -12.162,8.568 -4.374,-2.644 -4.267,-7.721 -0.427,-11.529 8.215,-8.038 11.415,-26.549 -12.269,-40.405 z" />
  <path
     id="Flamer_Center"
     transform="matrix(0.634,0,0,0.633,-130.788,-349.477)"
     class="flame"
     d="m 401.630,890.449 c 9.5e-4,2.508 -0.177,4.932 -0.580,7.259 -1.543,8.928 -6.128,16.104 -11.599,21.732 -11.814,12.289 -26.866,19.714 -36.736,33.451 -5.321,7.416 -8.927,19.960 -7.123,31.687 0.987,0.032 1.966,0.044 2.957,0.085 2.918,0.123 4.715,0.236 6.957,0.341 1.955,-11.578 7.940,-23.087 18.398,-32.253 a 8.350,8.350 0 0 1 13.488,8.726 c -2.629,8.579 -1.125,14.250 0.837,16.888 1.963,2.638 4.061,3.597 8.572,2.105 l -0.056,0.017 c 9.360,-3.168 18.868,-1.440 25.187,3.798 6.309,5.232 9.442,13.199 9.216,21.339 -0.013,0.622 -0.223,1.248 -0.275,1.875 15.213,-10.293 21.263,-27.044 21.263,-40.462 0,-12.018 -4.863,-17.747 -10.093,-25.976 -2.175,-3.422 -4.414,-7.379 -5.628,-12.148 -0.282,2.264 -0.369,4.927 -0.076,8.166 l -0.002,-0.008 c 1.571,17.151 -17.150,29.981 -31.701,21.490 A 8.350,8.350 0 0 1 404.523,958.5 c -5.499,-3.326 -9.104,-9.355 -9.220,-15.388 -0.116,-6.033 2.670,-11.589 6.988,-15.873 a 8.350,8.350 0 0 1 0.039,-0.039 c 4.574,-4.478 8.129,-12.403 6.777,-21.195 -0.735,-4.783 -2.940,-10.095 -7.476,-15.554 z" />
  <path
     id="Pot_Rim"
     class="metal"
     d="M 123.985,2.100e-6 C 98.110,2.100e-6 74.693,2.151 57.533,5.696 48.953,7.468 41.949,9.563 36.819,12.068 c -2.564,1.252 -4.678,2.597 -6.305,4.240 -1.627,1.642 -2.822,3.761 -2.822,6.135 a 3.256,3.228 0 1 0 6.512,0 c 0,-0.279 0.104,-0.750 0.956,-1.610 0.851,-0.859 2.393,-1.927 4.536,-2.974 4.286,-2.093 10.908,-4.137 19.164,-5.843 16.512,-3.410 39.615,-5.560 65.123,-5.560 25.508,0 48.610,2.149 65.123,5.560 8.256,1.705 14.878,3.750 19.164,5.843 2.143,1.046 3.685,2.114 4.536,2.974 0.851,0.859 0.956,1.330 0.956,1.610 a 3.256,3.228 0 1 0 6.512,0 c 0,-2.373 -1.195,-4.492 -2.822,-6.135 -1.627,-1.642 -3.741,-2.987 -6.305,-4.240 C 206.020,9.563 199.016,7.468 190.436,5.696 173.276,2.151 149.860,2.100e-6 123.985,2.100e-6 Z" />
  <path
     id="Pot"
     class="metal"
     d="m 123.985,5.402 c -51.383,0 -93.038,8.603 -93.038,19.217 V 42.695 H 3.614 c -2.881,5.4e-4 -4.600,3.184 -3.002,5.562 l 6.030,8.968 c 0.669,0.995 1.796,1.593 3.002,1.593 H 30.946 V 215.712 c -9e-6,10.613 41.655,19.216 93.038,19.216 51.383,0 93.037,-8.602 93.037,-19.216 V 58.819 h 17.332 c 1.206,-1.8e-5 2.333,-0.597 3.002,-1.593 l 6.030,-8.968 c 1.597,-2.377 -0.121,-5.561 -3.002,-5.562 H 217.022 V 24.619 c 0,-10.613 -41.654,-19.217 -93.037,-19.217 z M 10.358,49.851 h 20.588 v 1.811 H 11.576 Z m 206.664,0 h 16.618 l -1.217,1.811 h -15.400 z" />
  <path
     id="Rim_Highlight"
     class="metal-highlight"
     d="m 125.637,11.680 c 23.940,0 45.623,1.815 61.121,4.696 7.749,1.440 13.964,3.167 17.987,4.935 2.011,0.884 3.222,1.549 4.355,2.374 1.635,1.190 3.653,0.762 4.381,-0.391 0.797,-1.264 0.404,-2.941 -1.335,-4.168 -1.818,-1.282 -2.294,-1.648 -4.701,-2.706 -4.814,-2.116 -11.387,-3.886 -19.440,-5.383 C 171.900,8.043 149.923,6.226 125.637,6.226 v 0 c -0.971,9.148e-4 -1.792,2.47e-4 -2.744,0 v 0 c -24.285,0 -46.262,1.817 -62.368,4.811 -8.052,1.497 -14.626,3.267 -19.440,5.383 -2.407,1.058 -2.882,1.423 -4.701,2.706 -1.739,1.226 -2.132,2.903 -1.335,4.168 0.728,1.154 2.746,1.581 4.381,0.391 1.132,-0.824 2.343,-1.489 4.355,-2.374 4.022,-1.768 10.238,-3.495 17.987,-4.935 15.498,-2.881 37.180,-4.696 61.121,-4.696 0.971,9.15e-4 1.792,5.13e-4 2.744,0 z" />
  <path
     id="Pot_Highlight"
     class="metal-highlight"
     d="m 206.978,29.097 c 1.953,0.953 3.239,1.895 3.741,2.402 0.119,0.120 0.081,0.070 0.117,0.108 V 79.447 215.180 c -0.036,0.037 0.002,-0.012 -0.117,0.108 -0.502,0.507 -1.788,1.448 -3.741,2.402 -3.906,1.907 -10.355,3.931 -18.466,5.606 -16.221,3.350 -39.183,5.499 -64.526,5.499 -25.343,0 -48.304,-2.148 -64.526,-5.499 -8.110,-1.675 -14.560,-3.698 -18.467,-5.606 -1.953,-0.953 -3.239,-1.895 -3.741,-2.402 -0.119,-0.120 -0.081,-0.070 -0.117,-0.108 l 9e-6,-135.733 -9e-6,-47.839 c 0.036,-0.037 -0.001,0.012 0.117,-0.108 0.502,-0.507 1.788,-1.448 3.741,-2.402 1.531,-0.747 3.453,-1.513 5.712,-2.268 l 0.057,189.073 c 3.429,1.218 8.078,2.516 13.488,3.634 15.830,3.269 38.613,5.418 63.735,5.418 25.122,0 47.905,-2.148 63.735,-5.418 1.335,-0.275 2.624,-0.562 3.700,-0.818 l 0.101,-194.571 c 6.697,0.989 12.044,3.286 15.454,4.951 z" />
  <path
     id="Brew_Paddle"
     class="orange paddle"
     d="m 172.235,41.702 -4.641,5.237 10.964,9.707 -75.268,84.938 -18.954,-16.782 -31.055,46.901 27.250,24.126 42.829,-36.476 -14.866,-13.162 75.268,-84.938 10.964,9.707 4.641,-5.237 z M 87.799,141.852 a 3.474,3.498 43.308 0 1 0.280,4.922 3.474,3.498 43.308 0 1 -4.921,0.315 3.474,3.498 43.308 0 1 -0.281,-4.921 3.474,3.498 43.308 0 1 4.922,-0.315 z m 18.769,16.617 a 3.474,3.498 43.308 0 1 0.280,4.922 3.474,3.498 43.308 0 1 -4.921,0.315 3.474,3.498 43.308 0 1 -0.281,-4.922 3.474,3.498 43.308 0 1 4.922,-0.315 z m -26.803,-4.370 a 3.474,3.498 43.308 0 1 0.281,4.922 3.474,3.498 43.308 0 1 -4.922,0.315 3.474,3.498 43.308 0 1 -0.280,-4.922 3.474,3.498 43.308 0 1 4.921,-0.315 z m 15.609,13.820 a 3.474,3.498 43.308 0 1 0.281,4.922 3.474,3.498 43.308 0 1 -4.922,0.315 3.474,3.498 43.308 0 1 -0.280,-4.922 3.474,3.498 43.308 0 1 4.921,-0.315 z m -23.643,-1.573 a 3.474,3.498 43.308 0 1 0.281,4.922 3.474,3.498 43.308 0 1 -4.922,0.315 3.474,3.498 43.308 0 1 -0.280,-4.922 3.474,3.498 43.308 0 1 4.921,-0.315 z m 12.450,11.023 a 3.474,3.498 43.308 0 1 0.281,4.922 3.474,3.498 43.308 0 1 -4.922,0.315 3.474,3.498 43.308 0 1 -0.280,-4.922 3.474,3.498 43.308 0 1 4.921,-0.315 z" />
</svg>
